<?xml version="1.0" encoding="UTF-8" standalone="no"?>
<svg
   class="external-icon"
   viewBox="0 0 500.54792 350.39756"
   focusable="false"
   style="display:block"
   version="1.1"
   id="svg3"
   sodipodi:docname="YTLogo.svg"
   inkscape:export-filename="YTLogo.svg"
   inkscape:export-xdpi="3024.1511"
   inkscape:export-ydpi="3024.1511"
   width="500.54791"
   height="350.39755"
   xmlns:inkscape="http://www.inkscape.org/namespaces/inkscape"
   xmlns:sodipodi="http://sodipodi.sourceforge.net/DTD/sodipodi-0.dtd"
   xmlns="http://www.w3.org/2000/svg"
   xmlns:svg="http://www.w3.org/2000/svg">
  <defs
     id="defs3" />
  <sodipodi:namedview
     id="namedview3"
     pagecolor="#505050"
     bordercolor="#eeeeee"
     borderopacity="1"
     inkscape:showpageshadow="0"
     inkscape:pageopacity="0"
     inkscape:pagecheckerboard="0"
     inkscape:deskcolor="#505050" />
  <path
     d="m 250.27368,0 c 0,0 -9.79753,0.00750758 -25.08211,0.1710978 C 217.54928,0.2528554 208.53,0.36351714 198.67228,0.54750171 188.81457,0.73147502 178.12552,0.97325296 167.12287,1.3003058 156.12023,1.6273736 144.80276,2.0553659 133.72567,2.5663882 122.64859,3.0774106 111.81248,3.67831 101.73143,4.4141845 96.690909,4.7821311 91.847828,5.1800142 87.257031,5.6118278 82.666235,6.0436452 78.329716,6.513984 74.322461,7.0147848 70.315203,7.5155893 66.628248,8.0481509 63.338343,8.6230516 c -3.289909,0.5749006 -6.1843,1.1936868 -8.623048,1.8477964 -2.693676,0.721066 -5.299355,1.611821 -7.836024,2.669039 -2.53667,1.057214 -5.002888,2.259381 -7.356966,3.627154 -2.354074,1.367772 -4.595143,2.898313 -6.741032,4.551055 -2.145888,1.652738 -4.178773,3.460181 -6.090883,5.372294 -1.91211,1.912114 -3.719556,3.944983 -5.372294,6.09088 -1.652738,2.145899 -3.183283,4.386946 -4.551052,6.741035 -1.367772,2.354085 -2.569939,4.820277 -3.627157,7.356966 -1.057214,2.536684 -1.947973,5.142326 -2.669035,7.83602 -0.6541098,2.438741 -1.272896,5.061755 -1.8477967,7.801805 -0.5749006,2.740053 -1.107466,5.607961 -1.6082668,8.588828 C 6.0131832,77.067658 5.1500589,83.432496 4.4141845,89.994502 3.6783138,96.556512 3.0774144,103.29977 2.5663882,109.97807 2.0553659,116.65638 1.6273623,123.27463 1.3003058,129.58524 0.97323795,135.89585 0.73147127,141.9199 0.54750171,147.37883 0.3635284,152.83776 0.25286664,157.72996 0.1710978,161.85323 0.00758266,170.09977 0,175.19842 0,175.19842 c 0,0 0.00750758,5.09861 0.1710978,13.3452 0.0817576,4.12329 0.19241934,9.01543 0.37640391,14.4744 0.18397331,5.45896 0.42575125,11.48294 0.75280409,17.79359 0.3270678,6.31063 0.7550601,12.92882 1.2660824,19.60716 0.5110224,6.67833 1.1119256,13.42153 1.8477963,19.98357 0.7358744,6.56205 1.5989987,12.9268 2.600604,18.88858 0.5008008,2.98089 1.0333662,5.84875 1.6082668,8.58884 0.5749007,2.74006 1.1936869,5.36303 1.8477967,7.80179 0.721065,2.69368 1.611821,5.29937 2.669035,7.83603 1.057218,2.53666 2.259385,5.0029 3.627157,7.35697 1.367773,2.35405 2.898314,4.59515 4.551052,6.74102 1.652734,2.14587 3.460184,4.17881 5.372294,6.09088 1.91211,1.91208 3.944995,3.71962 6.090883,5.3723 2.145889,1.65265 4.386958,3.18336 6.741032,4.55106 2.354078,1.36777 4.820296,2.57004 7.356966,3.62715 2.536669,1.05715 5.142348,1.9481 7.836024,2.66904 2.438748,0.65419 5.333139,1.27282 8.623048,1.84778 3.289905,0.57501 6.97686,1.10743 10.984118,1.60833 4.007255,0.50089 8.343774,0.97112 12.93457,1.40298 4.590797,0.43187 9.433878,0.82975 14.474399,1.19766 10.08105,0.73584 20.91716,1.33677 31.99424,1.8478 11.07709,0.51106 22.39456,0.93907 33.3972,1.26616 11.00265,0.32711 21.6917,0.56887 31.54941,0.75283 9.85772,0.18397 18.877,0.29467 26.51929,0.37633 15.28458,0.16291 25.08211,0.17169 25.08211,0.17169 0,0 9.79736,-0.007 25.08212,-0.17169 7.64239,-0.0824 16.62726,-0.19239 26.48508,-0.37633 9.8578,-0.18398 20.58089,-0.42574 31.58362,-0.75283 11.00272,-0.32711 22.28585,-0.7551 33.36298,-1.26616 11.07714,-0.51105 21.94741,-1.11181 32.02848,-1.8478 5.04047,-0.36791 9.88362,-0.76579 14.47439,-1.19766 4.59074,-0.43186 8.92734,-0.90209 12.93455,-1.40298 4.00721,-0.5009 7.6943,-1.03332 10.98412,-1.60833 3.28986,-0.575 6.18441,-1.19362 8.62306,-1.84778 2.69364,-0.72094 5.2993,-1.612 7.836,-2.66904 2.53674,-1.05715 5.00283,-2.25946 7.35698,-3.62715 2.35415,-1.36778 4.59505,-2.89838 6.74102,-4.55106 2.14597,-1.65265 4.17872,-3.46022 6.0909,-5.3723 1.91218,-1.91207 3.71952,-3.94501 5.37232,-6.09088 1.65279,-2.14587 3.14902,-4.38697 4.51678,-6.74102 1.36781,-2.35407 2.60423,-4.82031 3.66138,-7.35697 1.05714,-2.53666 1.9481,-5.14235 2.66906,-7.83603 0.65417,-2.43876 1.27279,-5.06173 1.8478,-7.80179 0.575,-2.74009 1.10744,-5.60795 1.60831,-8.58884 1.00162,-5.96178 1.8647,-12.32653 2.60059,-18.88858 0.73586,-6.56204 1.33676,-13.30524 1.8478,-19.98357 0.51104,-6.67834 0.93905,-13.29653 1.26616,-19.60716 0.32695,-6.31065 0.56888,-12.33463 0.75282,-17.79359 0.18394,-5.45897 0.29467,-10.35111 0.37636,-14.4744 0.16291,-8.24659 0.17154,-13.3452 0.17154,-13.3452 0,0 -0.004,-5.09865 -0.17154,-13.34519 -0.0841,-4.12327 -0.22486,-9.01547 -0.41067,-14.4744 -0.18581,-5.45893 -0.42452,-11.48298 -0.75286,-17.79359 -0.32808,-6.31061 -0.72039,-12.92886 -1.23181,-19.60717 -0.51141,-6.6783 -1.14701,-13.421558 -1.882,-19.983568 -0.73495,-6.562006 -1.56769,-12.926844 -2.56639,-18.888578 -0.49929,-2.980867 -1.03526,-5.848775 -1.60831,-8.588828 -0.5729,-2.74005 -1.19626,-5.363064 -1.8478,-7.801805 -0.72096,-2.693694 -1.61185,-5.299336 -2.66906,-7.83602 -1.05715,-2.536689 -2.29357,-5.002881 -3.66138,-7.356966 -1.36776,-2.354089 -2.86403,-4.595136 -4.51678,-6.741035 -1.6528,-2.145897 -3.46014,-4.178766 -5.37232,-6.09088 -1.91218,-1.912113 -3.94489,-3.719556 -6.0909,-5.372294 -2.14597,-1.652742 -4.38687,-3.183283 -6.74102,-4.551055 -2.35415,-1.367773 -4.82024,-2.56994 -7.35698,-3.627154 -2.5367,-1.057218 -5.14236,-1.947973 -7.836,-2.669039 -2.43865,-0.6541096 -5.3332,-1.2728958 -8.62306,-1.8477964 C 433.9192,8.0481509 430.23211,7.5155893 426.2249,7.0147848 422.21769,6.513984 417.88109,6.0436452 413.29035,5.6118278 408.69958,5.1800142 403.85643,4.7821198 398.81596,4.4141845 388.73489,3.67831 377.86462,3.0774106 366.78748,2.5663882 355.71035,2.0553659 344.42722,1.6273623 333.4245,1.3003058 322.42177,0.97323795 311.69868,0.73146751 301.84088,0.54750171 291.98306,0.3635284 282.99819,0.25286664 275.3558,0.1710978 260.07104,0.00758266 250.27368,0 250.27368,0 Z m -50.0958,100.12316 130.03008,75.07526 -130.03008,75.07525 z"
     style="fill:#f9f9f9;stroke-width:17.5198"
     id="path3"
     inkscape:export-filename=".\path3.svg"
     inkscape:export-xdpi="3024.1511"
     inkscape:export-ydpi="3024.1511" />
</svg>
